<svg width="496" height="496" viewBox="0 0 496 496" fill="none" xmlns="http://www.w3.org/2000/svg">
<path d="M108.523 227.982C102.529 227.982 91.8725 232.286 84.2128 239.135C55.0742 260.268 77.0532 313.296 40.7544 290.011C21.606 277.727 65.2312 200 84.2128 200C97.3672 200 105.859 222.698 108.523 227.982Z" fill="#4BA3F1"/>
<path d="M133 275.726C133 286.533 127.044 293.728 117.848 293.728C108.652 293.728 100.198 285.901 96.7011 273.965C90.5402 260.659 101.03 234.83 110.022 232.286C114.85 235.222 133 267.312 133 275.726Z" fill="#4BA3F1"/>
<g filter="url(#filter0_d_24_253)">
<path d="M158.109 268.183C159.646 268.183 161.026 267.884 162.25 267.285C163.5 266.66 164.503 265.801 165.258 264.707C166.039 263.613 166.469 262.35 166.547 260.918H175.414C175.362 263.652 174.555 266.139 172.992 268.379C171.43 270.618 169.359 272.402 166.781 273.73C164.203 275.032 161.352 275.683 158.227 275.683C154.997 275.683 152.185 275.136 149.789 274.043C147.393 272.923 145.401 271.386 143.812 269.433C142.224 267.48 141.026 265.228 140.219 262.676C139.438 260.123 139.047 257.389 139.047 254.472V253.105C139.047 250.189 139.438 247.454 140.219 244.902C141.026 242.324 142.224 240.058 143.812 238.105C145.401 236.152 147.393 234.629 149.789 233.535C152.185 232.415 154.984 231.855 158.188 231.855C161.573 231.855 164.542 232.532 167.094 233.886C169.646 235.215 171.651 237.077 173.109 239.472C174.594 241.842 175.362 244.603 175.414 247.754H166.547C166.469 246.191 166.078 244.785 165.375 243.535C164.698 242.259 163.734 241.243 162.484 240.488C161.26 239.733 159.789 239.355 158.07 239.355C156.169 239.355 154.594 239.746 153.344 240.527C152.094 241.282 151.117 242.324 150.414 243.652C149.711 244.954 149.203 246.426 148.891 248.066C148.604 249.681 148.461 251.36 148.461 253.105V254.472C148.461 256.217 148.604 257.91 148.891 259.551C149.177 261.191 149.672 262.663 150.375 263.965C151.104 265.241 152.094 266.269 153.344 267.051C154.594 267.806 156.182 268.183 158.109 268.183ZM199.906 268.183C201.443 268.183 202.823 267.884 204.047 267.285C205.297 266.66 206.299 265.801 207.055 264.707C207.836 263.613 208.266 262.35 208.344 260.918H217.211C217.159 263.652 216.352 266.139 214.789 268.379C213.227 270.618 211.156 272.402 208.578 273.73C206 275.032 203.148 275.683 200.023 275.683C196.794 275.683 193.982 275.136 191.586 274.043C189.19 272.923 187.198 271.386 185.609 269.433C184.021 267.48 182.823 265.228 182.016 262.676C181.234 260.123 180.844 257.389 180.844 254.472V253.105C180.844 250.189 181.234 247.454 182.016 244.902C182.823 242.324 184.021 240.058 185.609 238.105C187.198 236.152 189.19 234.629 191.586 233.535C193.982 232.415 196.781 231.855 199.984 231.855C203.37 231.855 206.339 232.532 208.891 233.886C211.443 235.215 213.448 237.077 214.906 239.472C216.391 241.842 217.159 244.603 217.211 247.754H208.344C208.266 246.191 207.875 244.785 207.172 243.535C206.495 242.259 205.531 241.243 204.281 240.488C203.057 239.733 201.586 239.355 199.867 239.355C197.966 239.355 196.391 239.746 195.141 240.527C193.891 241.282 192.914 242.324 192.211 243.652C191.508 244.954 191 246.426 190.688 248.066C190.401 249.681 190.258 251.36 190.258 253.105V254.472C190.258 256.217 190.401 257.91 190.688 259.551C190.974 261.191 191.469 262.663 192.172 263.965C192.901 265.241 193.891 266.269 195.141 267.051C196.391 267.806 197.979 268.183 199.906 268.183ZM243.07 275.683C239.945 275.683 237.12 275.176 234.594 274.16C232.094 273.118 229.958 271.673 228.188 269.824C226.443 267.975 225.102 265.801 224.164 263.301C223.227 260.801 222.758 258.105 222.758 255.215V253.652C222.758 250.345 223.24 247.35 224.203 244.668C225.167 241.985 226.508 239.694 228.227 237.793C229.945 235.866 231.977 234.394 234.32 233.379C236.664 232.363 239.203 231.855 241.938 231.855C244.958 231.855 247.602 232.363 249.867 233.379C252.133 234.394 254.008 235.827 255.492 237.676C257.003 239.498 258.122 241.673 258.852 244.199C259.607 246.725 259.984 249.511 259.984 252.558V256.582H227.328V249.824H250.688V249.082C250.635 247.389 250.297 245.801 249.672 244.316C249.073 242.832 248.148 241.634 246.898 240.722C245.648 239.811 243.982 239.355 241.898 239.355C240.336 239.355 238.943 239.694 237.719 240.371C236.521 241.022 235.518 241.972 234.711 243.222C233.904 244.472 233.279 245.983 232.836 247.754C232.419 249.498 232.211 251.465 232.211 253.652V255.215C232.211 257.064 232.458 258.782 232.953 260.371C233.474 261.933 234.229 263.301 235.219 264.472C236.208 265.644 237.406 266.569 238.812 267.246C240.219 267.897 241.82 268.222 243.617 268.222C245.883 268.222 247.901 267.767 249.672 266.855C251.443 265.944 252.979 264.655 254.281 262.988L259.242 267.793C258.331 269.121 257.146 270.397 255.688 271.621C254.229 272.819 252.445 273.795 250.336 274.551C248.253 275.306 245.831 275.683 243.07 275.683ZM291.039 263.457C291.039 262.519 290.805 261.673 290.336 260.918C289.867 260.136 288.969 259.433 287.641 258.808C286.339 258.183 284.411 257.61 281.859 257.09C279.62 256.595 277.562 256.009 275.688 255.332C273.839 254.629 272.25 253.782 270.922 252.793C269.594 251.803 268.565 250.631 267.836 249.277C267.107 247.923 266.742 246.36 266.742 244.59C266.742 242.871 267.12 241.243 267.875 239.707C268.63 238.17 269.711 236.816 271.117 235.644C272.523 234.472 274.229 233.548 276.234 232.871C278.266 232.194 280.531 231.855 283.031 231.855C286.573 231.855 289.607 232.454 292.133 233.652C294.685 234.824 296.638 236.426 297.992 238.457C299.346 240.462 300.023 242.728 300.023 245.254H290.609C290.609 244.134 290.323 243.092 289.75 242.129C289.203 241.139 288.37 240.345 287.25 239.746C286.13 239.121 284.724 238.808 283.031 238.808C281.417 238.808 280.076 239.069 279.008 239.59C277.966 240.084 277.185 240.735 276.664 241.543C276.169 242.35 275.922 243.235 275.922 244.199C275.922 244.902 276.052 245.54 276.312 246.113C276.599 246.66 277.068 247.168 277.719 247.636C278.37 248.079 279.255 248.496 280.375 248.886C281.521 249.277 282.953 249.655 284.672 250.019C287.901 250.696 290.674 251.569 292.992 252.636C295.336 253.678 297.133 255.032 298.383 256.699C299.633 258.34 300.258 260.423 300.258 262.949C300.258 264.824 299.854 266.543 299.047 268.105C298.266 269.642 297.12 270.983 295.609 272.129C294.099 273.248 292.289 274.121 290.18 274.746C288.096 275.371 285.753 275.683 283.148 275.683C279.32 275.683 276.078 275.006 273.422 273.652C270.766 272.272 268.747 270.514 267.367 268.379C266.013 266.217 265.336 263.978 265.336 261.66H274.438C274.542 263.405 275.023 264.798 275.883 265.84C276.768 266.855 277.862 267.597 279.164 268.066C280.492 268.509 281.859 268.73 283.266 268.73C284.958 268.73 286.378 268.509 287.523 268.066C288.669 267.597 289.542 266.972 290.141 266.191C290.74 265.384 291.039 264.472 291.039 263.457ZM332.211 263.457C332.211 262.519 331.977 261.673 331.508 260.918C331.039 260.136 330.141 259.433 328.812 258.808C327.51 258.183 325.583 257.61 323.031 257.09C320.792 256.595 318.734 256.009 316.859 255.332C315.01 254.629 313.422 253.782 312.094 252.793C310.766 251.803 309.737 250.631 309.008 249.277C308.279 247.923 307.914 246.36 307.914 244.59C307.914 242.871 308.292 241.243 309.047 239.707C309.802 238.17 310.883 236.816 312.289 235.644C313.695 234.472 315.401 233.548 317.406 232.871C319.438 232.194 321.703 231.855 324.203 231.855C327.745 231.855 330.779 232.454 333.305 233.652C335.857 234.824 337.81 236.426 339.164 238.457C340.518 240.462 341.195 242.728 341.195 245.254H331.781C331.781 244.134 331.495 243.092 330.922 242.129C330.375 241.139 329.542 240.345 328.422 239.746C327.302 239.121 325.896 238.808 324.203 238.808C322.589 238.808 321.247 239.069 320.18 239.59C319.138 240.084 318.357 240.735 317.836 241.543C317.341 242.35 317.094 243.235 317.094 244.199C317.094 244.902 317.224 245.54 317.484 246.113C317.771 246.66 318.24 247.168 318.891 247.636C319.542 248.079 320.427 248.496 321.547 248.886C322.693 249.277 324.125 249.655 325.844 250.019C329.073 250.696 331.846 251.569 334.164 252.636C336.508 253.678 338.305 255.032 339.555 256.699C340.805 258.34 341.43 260.423 341.43 262.949C341.43 264.824 341.026 266.543 340.219 268.105C339.438 269.642 338.292 270.983 336.781 272.129C335.271 273.248 333.461 274.121 331.352 274.746C329.268 275.371 326.924 275.683 324.32 275.683C320.492 275.683 317.25 275.006 314.594 273.652C311.938 272.272 309.919 270.514 308.539 268.379C307.185 266.217 306.508 263.978 306.508 261.66H315.609C315.714 263.405 316.195 264.798 317.055 265.84C317.94 266.855 319.034 267.597 320.336 268.066C321.664 268.509 323.031 268.73 324.438 268.73C326.13 268.73 327.549 268.509 328.695 268.066C329.841 267.597 330.714 266.972 331.312 266.191C331.911 265.384 332.211 264.472 332.211 263.457ZM375.102 264.941V232.636H384.555V274.902H375.648L375.102 264.941ZM376.43 256.152L379.594 256.074C379.594 258.913 379.281 261.53 378.656 263.926C378.031 266.295 377.068 268.366 375.766 270.136C374.464 271.881 372.797 273.248 370.766 274.238C368.734 275.202 366.299 275.683 363.461 275.683C361.404 275.683 359.516 275.384 357.797 274.785C356.078 274.186 354.594 273.261 353.344 272.011C352.12 270.761 351.169 269.134 350.492 267.129C349.815 265.123 349.477 262.728 349.477 259.941V232.636H358.891V260.019C358.891 261.556 359.073 262.845 359.438 263.886C359.802 264.902 360.297 265.722 360.922 266.347C361.547 266.972 362.276 267.415 363.109 267.676C363.943 267.936 364.828 268.066 365.766 268.066C368.448 268.066 370.557 267.545 372.094 266.504C373.656 265.436 374.763 264.004 375.414 262.207C376.091 260.41 376.43 258.392 376.43 256.152ZM403.617 241.23V274.902H394.203V232.636H403.07L403.617 241.23ZM402.094 252.207L398.891 252.168C398.891 249.251 399.255 246.556 399.984 244.082C400.714 241.608 401.781 239.459 403.188 237.636C404.594 235.788 406.339 234.368 408.422 233.379C410.531 232.363 412.966 231.855 415.727 231.855C417.654 231.855 419.411 232.142 421 232.715C422.615 233.261 424.008 234.134 425.18 235.332C426.378 236.53 427.289 238.066 427.914 239.941C428.565 241.816 428.891 244.082 428.891 246.738V274.902H419.477V247.558C419.477 245.501 419.164 243.886 418.539 242.715C417.94 241.543 417.068 240.709 415.922 240.215C414.802 239.694 413.461 239.433 411.898 239.433C410.128 239.433 408.617 239.772 407.367 240.449C406.143 241.126 405.141 242.051 404.359 243.222C403.578 244.394 403.005 245.748 402.641 247.285C402.276 248.821 402.094 250.462 402.094 252.207ZM428.305 249.707L423.891 250.683C423.891 248.131 424.242 245.722 424.945 243.457C425.674 241.165 426.729 239.16 428.109 237.441C429.516 235.696 431.247 234.329 433.305 233.34C435.362 232.35 437.719 231.855 440.375 231.855C442.536 231.855 444.464 232.155 446.156 232.754C447.875 233.327 449.333 234.238 450.531 235.488C451.729 236.738 452.641 238.366 453.266 240.371C453.891 242.35 454.203 244.746 454.203 247.558V274.902H444.75V247.519C444.75 245.384 444.438 243.73 443.812 242.558C443.214 241.386 442.354 240.579 441.234 240.136C440.115 239.668 438.773 239.433 437.211 239.433C435.753 239.433 434.464 239.707 433.344 240.254C432.25 240.774 431.326 241.517 430.57 242.48C429.815 243.418 429.242 244.498 428.852 245.722C428.487 246.946 428.305 248.274 428.305 249.707Z" fill="#4BA3F1"/>
</g>
<defs>
<filter id="filter0_d_24_253" x="135.047" y="231.855" width="323.156" height="51.8281" filterUnits="userSpaceOnUse" color-interpolation-filters="sRGB">
<feFlood flood-opacity="0" result="BackgroundImageFix"/>
<feColorMatrix in="SourceAlpha" type="matrix" values="0 0 0 0 0 0 0 0 0 0 0 0 0 0 0 0 0 0 127 0" result="hardAlpha"/>
<feOffset dy="4"/>
<feGaussianBlur stdDeviation="2"/>
<feComposite in2="hardAlpha" operator="out"/>
<feColorMatrix type="matrix" values="0 0 0 0 0 0 0 0 0 0 0 0 0 0 0 0 0 0 0.25 0"/>
<feBlend mode="normal" in2="BackgroundImageFix" result="effect1_dropShadow_24_253"/>
<feBlend mode="normal" in="SourceGraphic" in2="effect1_dropShadow_24_253" result="shape"/>
</filter>
</defs>
</svg>
